<?xml version="1.0" encoding="UTF-8" standalone="no"?>
<svg
xmlns="http://www.w3.org/2000/svg"
version="1.0"
width="1600" height="1600"
id="5-simplex_t01.svg">
<g style="stroke:#000000;stroke-width:4.0;stroke-opacity:0.90;">
<line x1="1502.725" y1="1089.444" x2="1162.463" y2="978.886"/>
<line x1="1502.725" y1="1089.444" x2="1162.463" y2="621.114"/>
<line x1="1502.725" y1="1089.444" x2="1502.725" y2="510.556"/>
<line x1="1502.725" y1="1089.444" x2="1408.679" y2="800.000"/>
<line x1="1502.725" y1="1089.444" x2="1292.432" y2="1378.888"/>
<line x1="1162.463" y1="978.886" x2="1162.463" y2="621.114"/>
<line x1="1162.463" y1="978.886" x2="1502.725" y2="510.556"/>
<line x1="1162.463" y1="978.886" x2="1408.679" y2="800.000"/>
<line x1="1162.463" y1="978.886" x2="611.908" y2="1157.772"/>
<line x1="1162.463" y1="621.114" x2="1502.725" y2="510.556"/>
<line x1="1162.463" y1="621.114" x2="1408.679" y2="800.000"/>
<line x1="1162.463" y1="621.114" x2="611.908" y2="442.228"/>
<line x1="1502.725" y1="510.556" x2="1408.679" y2="800.000"/>
<line x1="1502.725" y1="510.556" x2="1292.432" y2="221.112"/>
<line x1="1408.679" y1="800.000" x2="1104.339" y2="800.000"/>
<line x1="1292.432" y1="1378.888" x2="741.876" y2="1557.774"/>
<line x1="1292.432" y1="1378.888" x2="741.876" y2="1200.002"/>
<line x1="1292.432" y1="1378.888" x2="1082.138" y2="1089.444"/>
<line x1="1292.432" y1="1378.888" x2="988.092" y2="1378.888"/>
<line x1="611.908" y1="1157.772" x2="401.615" y2="1447.216"/>
<line x1="611.908" y1="1157.772" x2="61.353" y2="978.886"/>
<line x1="611.908" y1="1157.772" x2="401.615" y2="868.328"/>
<line x1="611.908" y1="1157.772" x2="307.569" y2="1157.772"/>
<line x1="611.908" y1="442.228" x2="401.615" y2="731.672"/>
<line x1="611.908" y1="442.228" x2="61.353" y2="621.114"/>
<line x1="611.908" y1="442.228" x2="401.615" y2="152.784"/>
<line x1="611.908" y1="442.228" x2="307.569" y2="442.228"/>
<line x1="1292.432" y1="221.112" x2="1082.138" y2="510.556"/>
<line x1="1292.432" y1="221.112" x2="741.876" y2="399.998"/>
<line x1="1292.432" y1="221.112" x2="741.876" y2="42.226"/>
<line x1="1292.432" y1="221.112" x2="988.092" y2="221.112"/>
<line x1="1104.339" y1="800.000" x2="894.046" y2="1089.444"/>
<line x1="1104.339" y1="800.000" x2="553.784" y2="978.886"/>
<line x1="1104.339" y1="800.000" x2="553.784" y2="621.114"/>
<line x1="1104.339" y1="800.000" x2="894.046" y2="510.556"/>
<line x1="741.876" y1="1557.774" x2="741.876" y2="1200.002"/>
<line x1="741.876" y1="1557.774" x2="1082.138" y2="1089.444"/>
<line x1="741.876" y1="1557.774" x2="988.092" y2="1378.888"/>
<line x1="741.876" y1="1557.774" x2="401.615" y2="1447.216"/>
<line x1="741.876" y1="1200.002" x2="1082.138" y2="1089.444"/>
<line x1="741.876" y1="1200.002" x2="988.092" y2="1378.888"/>
<line x1="741.876" y1="1200.002" x2="401.615" y2="731.672"/>
<line x1="1082.138" y1="1089.444" x2="988.092" y2="1378.888"/>
<line x1="1082.138" y1="1089.444" x2="1082.138" y2="510.556"/>
<line x1="988.092" y1="1378.888" x2="894.046" y2="1089.444"/>
<line x1="401.615" y1="1447.216" x2="61.353" y2="978.886"/>
<line x1="401.615" y1="1447.216" x2="401.615" y2="868.328"/>
<line x1="401.615" y1="1447.216" x2="307.569" y2="1157.772"/>
<line x1="401.615" y1="731.672" x2="61.353" y2="621.114"/>
<line x1="401.615" y1="731.672" x2="401.615" y2="152.784"/>
<line x1="401.615" y1="731.672" x2="307.569" y2="442.228"/>
<line x1="1082.138" y1="510.556" x2="741.876" y2="399.998"/>
<line x1="1082.138" y1="510.556" x2="741.876" y2="42.226"/>
<line x1="1082.138" y1="510.556" x2="988.092" y2="221.112"/>
<line x1="894.046" y1="1089.444" x2="553.784" y2="978.886"/>
<line x1="894.046" y1="1089.444" x2="553.784" y2="621.114"/>
<line x1="894.046" y1="1089.444" x2="894.046" y2="510.556"/>
<line x1="61.353" y1="978.886" x2="401.615" y2="868.328"/>
<line x1="61.353" y1="978.886" x2="307.569" y2="1157.772"/>
<line x1="61.353" y1="978.886" x2="61.353" y2="621.114"/>
<line x1="401.615" y1="868.328" x2="307.569" y2="1157.772"/>
<line x1="401.615" y1="868.328" x2="741.876" y2="399.998"/>
<line x1="307.569" y1="1157.772" x2="553.784" y2="978.886"/>
<line x1="61.353" y1="621.114" x2="401.615" y2="152.784"/>
<line x1="61.353" y1="621.114" x2="307.569" y2="442.228"/>
<line x1="741.876" y1="399.998" x2="741.876" y2="42.226"/>
<line x1="741.876" y1="399.998" x2="988.092" y2="221.112"/>
<line x1="553.784" y1="978.886" x2="553.784" y2="621.114"/>
<line x1="553.784" y1="978.886" x2="894.046" y2="510.556"/>
<line x1="401.615" y1="152.784" x2="307.569" y2="442.228"/>
<line x1="401.615" y1="152.784" x2="741.876" y2="42.226"/>
<line x1="307.569" y1="442.228" x2="553.784" y2="621.114"/>
<line x1="741.876" y1="42.226" x2="988.092" y2="221.112"/>
<line x1="553.784" y1="621.114" x2="894.046" y2="510.556"/>
<line x1="988.092" y1="221.112" x2="894.046" y2="510.556"/>
</g>
<g style="stroke:#000000;stroke-width:2.0;fill:#ff0000">
<circle cx="1502.725" cy="1089.444" r="16.0"/>
<circle cx="1162.463" cy="978.886" r="16.0"/>
<circle cx="1162.463" cy="621.114" r="16.0"/>
<circle cx="1502.725" cy="510.556" r="16.0"/>
<circle cx="1408.679" cy="800.000" r="16.0"/>
<circle cx="1292.432" cy="1378.888" r="16.0"/>
<circle cx="611.908" cy="1157.772" r="16.0"/>
<circle cx="611.908" cy="442.228" r="16.0"/>
<circle cx="1292.432" cy="221.112" r="16.0"/>
<circle cx="1104.339" cy="800.000" r="16.0"/>
<circle cx="741.876" cy="1557.774" r="16.0"/>
<circle cx="741.876" cy="1200.002" r="16.0"/>
<circle cx="1082.138" cy="1089.444" r="16.0"/>
<circle cx="988.092" cy="1378.888" r="16.0"/>
<circle cx="401.615" cy="1447.216" r="16.0"/>
<circle cx="401.615" cy="731.672" r="16.0"/>
<circle cx="1082.138" cy="510.556" r="16.0"/>
<circle cx="894.046" cy="1089.444" r="16.0"/>
<circle cx="61.353" cy="978.886" r="16.0"/>
<circle cx="401.615" cy="868.328" r="16.0"/>
<circle cx="307.569" cy="1157.772" r="16.0"/>
<circle cx="61.353" cy="621.114" r="16.0"/>
<circle cx="741.876" cy="399.998" r="16.0"/>
<circle cx="553.784" cy="978.886" r="16.0"/>
<circle cx="401.615" cy="152.784" r="16.0"/>
<circle cx="307.569" cy="442.228" r="16.0"/>
<circle cx="741.876" cy="42.226" r="16.0"/>
<circle cx="553.784" cy="621.114" r="16.0"/>
<circle cx="988.092" cy="221.112" r="16.0"/>
<circle cx="894.046" cy="510.556" r="16.0"/>
</g>
</svg>
