<?xml version="1.0" encoding="UTF-8" standalone="no"?>
<svg
xmlns="http://www.w3.org/2000/svg"
version="1.0"
width="1600" height="1600"
id="19-simplex_t0.svg">
<g style="stroke:#000000;stroke-width:8.0;stroke-opacity:0.90;">
<line x1="1560.000" y1="800.000" x2="1522.803" y2="1034.853"/>
<line x1="1560.000" y1="800.000" x2="1414.853" y2="1246.717"/>
<line x1="1560.000" y1="800.000" x2="1246.717" y2="1414.853"/>
<line x1="1560.000" y1="800.000" x2="1034.853" y2="1522.803"/>
<line x1="1560.000" y1="800.000" x2="800.000" y2="1560.000"/>
<line x1="1560.000" y1="800.000" x2="565.147" y2="1522.803"/>
<line x1="1560.000" y1="800.000" x2="353.283" y2="1414.853"/>
<line x1="1560.000" y1="800.000" x2="185.147" y2="1246.717"/>
<line x1="1560.000" y1="800.000" x2="77.197" y2="1034.853"/>
<line x1="1560.000" y1="800.000" x2="40.000" y2="800.000"/>
<line x1="1560.000" y1="800.000" x2="77.197" y2="565.147"/>
<line x1="1560.000" y1="800.000" x2="185.147" y2="353.283"/>
<line x1="1560.000" y1="800.000" x2="353.283" y2="185.147"/>
<line x1="1560.000" y1="800.000" x2="565.147" y2="77.197"/>
<line x1="1560.000" y1="800.000" x2="800.000" y2="40.000"/>
<line x1="1560.000" y1="800.000" x2="1034.853" y2="77.197"/>
<line x1="1560.000" y1="800.000" x2="1246.717" y2="185.147"/>
<line x1="1560.000" y1="800.000" x2="1414.853" y2="353.283"/>
<line x1="1560.000" y1="800.000" x2="1522.803" y2="565.147"/>
<line x1="1522.803" y1="1034.853" x2="1414.853" y2="1246.717"/>
<line x1="1522.803" y1="1034.853" x2="1246.717" y2="1414.853"/>
<line x1="1522.803" y1="1034.853" x2="1034.853" y2="1522.803"/>
<line x1="1522.803" y1="1034.853" x2="800.000" y2="1560.000"/>
<line x1="1522.803" y1="1034.853" x2="565.147" y2="1522.803"/>
<line x1="1522.803" y1="1034.853" x2="353.283" y2="1414.853"/>
<line x1="1522.803" y1="1034.853" x2="185.147" y2="1246.717"/>
<line x1="1522.803" y1="1034.853" x2="77.197" y2="1034.853"/>
<line x1="1522.803" y1="1034.853" x2="40.000" y2="800.000"/>
<line x1="1522.803" y1="1034.853" x2="77.197" y2="565.147"/>
<line x1="1522.803" y1="1034.853" x2="185.147" y2="353.283"/>
<line x1="1522.803" y1="1034.853" x2="353.283" y2="185.147"/>
<line x1="1522.803" y1="1034.853" x2="565.147" y2="77.197"/>
<line x1="1522.803" y1="1034.853" x2="800.000" y2="40.000"/>
<line x1="1522.803" y1="1034.853" x2="1034.853" y2="77.197"/>
<line x1="1522.803" y1="1034.853" x2="1246.717" y2="185.147"/>
<line x1="1522.803" y1="1034.853" x2="1414.853" y2="353.283"/>
<line x1="1522.803" y1="1034.853" x2="1522.803" y2="565.147"/>
<line x1="1414.853" y1="1246.717" x2="1246.717" y2="1414.853"/>
<line x1="1414.853" y1="1246.717" x2="1034.853" y2="1522.803"/>
<line x1="1414.853" y1="1246.717" x2="800.000" y2="1560.000"/>
<line x1="1414.853" y1="1246.717" x2="565.147" y2="1522.803"/>
<line x1="1414.853" y1="1246.717" x2="353.283" y2="1414.853"/>
<line x1="1414.853" y1="1246.717" x2="185.147" y2="1246.717"/>
<line x1="1414.853" y1="1246.717" x2="77.197" y2="1034.853"/>
<line x1="1414.853" y1="1246.717" x2="40.000" y2="800.000"/>
<line x1="1414.853" y1="1246.717" x2="77.197" y2="565.147"/>
<line x1="1414.853" y1="1246.717" x2="185.147" y2="353.283"/>
<line x1="1414.853" y1="1246.717" x2="353.283" y2="185.147"/>
<line x1="1414.853" y1="1246.717" x2="565.147" y2="77.197"/>
<line x1="1414.853" y1="1246.717" x2="800.000" y2="40.000"/>
<line x1="1414.853" y1="1246.717" x2="1034.853" y2="77.197"/>
<line x1="1414.853" y1="1246.717" x2="1246.717" y2="185.147"/>
<line x1="1414.853" y1="1246.717" x2="1414.853" y2="353.283"/>
<line x1="1414.853" y1="1246.717" x2="1522.803" y2="565.147"/>
<line x1="1246.717" y1="1414.853" x2="1034.853" y2="1522.803"/>
<line x1="1246.717" y1="1414.853" x2="800.000" y2="1560.000"/>
<line x1="1246.717" y1="1414.853" x2="565.147" y2="1522.803"/>
<line x1="1246.717" y1="1414.853" x2="353.283" y2="1414.853"/>
<line x1="1246.717" y1="1414.853" x2="185.147" y2="1246.717"/>
<line x1="1246.717" y1="1414.853" x2="77.197" y2="1034.853"/>
<line x1="1246.717" y1="1414.853" x2="40.000" y2="800.000"/>
<line x1="1246.717" y1="1414.853" x2="77.197" y2="565.147"/>
<line x1="1246.717" y1="1414.853" x2="185.147" y2="353.283"/>
<line x1="1246.717" y1="1414.853" x2="353.283" y2="185.147"/>
<line x1="1246.717" y1="1414.853" x2="565.147" y2="77.197"/>
<line x1="1246.717" y1="1414.853" x2="800.000" y2="40.000"/>
<line x1="1246.717" y1="1414.853" x2="1034.853" y2="77.197"/>
<line x1="1246.717" y1="1414.853" x2="1246.717" y2="185.147"/>
<line x1="1246.717" y1="1414.853" x2="1414.853" y2="353.283"/>
<line x1="1246.717" y1="1414.853" x2="1522.803" y2="565.147"/>
<line x1="1034.853" y1="1522.803" x2="800.000" y2="1560.000"/>
<line x1="1034.853" y1="1522.803" x2="565.147" y2="1522.803"/>
<line x1="1034.853" y1="1522.803" x2="353.283" y2="1414.853"/>
<line x1="1034.853" y1="1522.803" x2="185.147" y2="1246.717"/>
<line x1="1034.853" y1="1522.803" x2="77.197" y2="1034.853"/>
<line x1="1034.853" y1="1522.803" x2="40.000" y2="800.000"/>
<line x1="1034.853" y1="1522.803" x2="77.197" y2="565.147"/>
<line x1="1034.853" y1="1522.803" x2="185.147" y2="353.283"/>
<line x1="1034.853" y1="1522.803" x2="353.283" y2="185.147"/>
<line x1="1034.853" y1="1522.803" x2="565.147" y2="77.197"/>
<line x1="1034.853" y1="1522.803" x2="800.000" y2="40.000"/>
<line x1="1034.853" y1="1522.803" x2="1034.853" y2="77.197"/>
<line x1="1034.853" y1="1522.803" x2="1246.717" y2="185.147"/>
<line x1="1034.853" y1="1522.803" x2="1414.853" y2="353.283"/>
<line x1="1034.853" y1="1522.803" x2="1522.803" y2="565.147"/>
<line x1="800.000" y1="1560.000" x2="565.147" y2="1522.803"/>
<line x1="800.000" y1="1560.000" x2="353.283" y2="1414.853"/>
<line x1="800.000" y1="1560.000" x2="185.147" y2="1246.717"/>
<line x1="800.000" y1="1560.000" x2="77.197" y2="1034.853"/>
<line x1="800.000" y1="1560.000" x2="40.000" y2="800.000"/>
<line x1="800.000" y1="1560.000" x2="77.197" y2="565.147"/>
<line x1="800.000" y1="1560.000" x2="185.147" y2="353.283"/>
<line x1="800.000" y1="1560.000" x2="353.283" y2="185.147"/>
<line x1="800.000" y1="1560.000" x2="565.147" y2="77.197"/>
<line x1="800.000" y1="1560.000" x2="800.000" y2="40.000"/>
<line x1="800.000" y1="1560.000" x2="1034.853" y2="77.197"/>
<line x1="800.000" y1="1560.000" x2="1246.717" y2="185.147"/>
<line x1="800.000" y1="1560.000" x2="1414.853" y2="353.283"/>
<line x1="800.000" y1="1560.000" x2="1522.803" y2="565.147"/>
<line x1="565.147" y1="1522.803" x2="353.283" y2="1414.853"/>
<line x1="565.147" y1="1522.803" x2="185.147" y2="1246.717"/>
<line x1="565.147" y1="1522.803" x2="77.197" y2="1034.853"/>
<line x1="565.147" y1="1522.803" x2="40.000" y2="800.000"/>
<line x1="565.147" y1="1522.803" x2="77.197" y2="565.147"/>
<line x1="565.147" y1="1522.803" x2="185.147" y2="353.283"/>
<line x1="565.147" y1="1522.803" x2="353.283" y2="185.147"/>
<line x1="565.147" y1="1522.803" x2="565.147" y2="77.197"/>
<line x1="565.147" y1="1522.803" x2="800.000" y2="40.000"/>
<line x1="565.147" y1="1522.803" x2="1034.853" y2="77.197"/>
<line x1="565.147" y1="1522.803" x2="1246.717" y2="185.147"/>
<line x1="565.147" y1="1522.803" x2="1414.853" y2="353.283"/>
<line x1="565.147" y1="1522.803" x2="1522.803" y2="565.147"/>
<line x1="353.283" y1="1414.853" x2="185.147" y2="1246.717"/>
<line x1="353.283" y1="1414.853" x2="77.197" y2="1034.853"/>
<line x1="353.283" y1="1414.853" x2="40.000" y2="800.000"/>
<line x1="353.283" y1="1414.853" x2="77.197" y2="565.147"/>
<line x1="353.283" y1="1414.853" x2="185.147" y2="353.283"/>
<line x1="353.283" y1="1414.853" x2="353.283" y2="185.147"/>
<line x1="353.283" y1="1414.853" x2="565.147" y2="77.197"/>
<line x1="353.283" y1="1414.853" x2="800.000" y2="40.000"/>
<line x1="353.283" y1="1414.853" x2="1034.853" y2="77.197"/>
<line x1="353.283" y1="1414.853" x2="1246.717" y2="185.147"/>
<line x1="353.283" y1="1414.853" x2="1414.853" y2="353.283"/>
<line x1="353.283" y1="1414.853" x2="1522.803" y2="565.147"/>
<line x1="185.147" y1="1246.717" x2="77.197" y2="1034.853"/>
<line x1="185.147" y1="1246.717" x2="40.000" y2="800.000"/>
<line x1="185.147" y1="1246.717" x2="77.197" y2="565.147"/>
<line x1="185.147" y1="1246.717" x2="185.147" y2="353.283"/>
<line x1="185.147" y1="1246.717" x2="353.283" y2="185.147"/>
<line x1="185.147" y1="1246.717" x2="565.147" y2="77.197"/>
<line x1="185.147" y1="1246.717" x2="800.000" y2="40.000"/>
<line x1="185.147" y1="1246.717" x2="1034.853" y2="77.197"/>
<line x1="185.147" y1="1246.717" x2="1246.717" y2="185.147"/>
<line x1="185.147" y1="1246.717" x2="1414.853" y2="353.283"/>
<line x1="185.147" y1="1246.717" x2="1522.803" y2="565.147"/>
<line x1="77.197" y1="1034.853" x2="40.000" y2="800.000"/>
<line x1="77.197" y1="1034.853" x2="77.197" y2="565.147"/>
<line x1="77.197" y1="1034.853" x2="185.147" y2="353.283"/>
<line x1="77.197" y1="1034.853" x2="353.283" y2="185.147"/>
<line x1="77.197" y1="1034.853" x2="565.147" y2="77.197"/>
<line x1="77.197" y1="1034.853" x2="800.000" y2="40.000"/>
<line x1="77.197" y1="1034.853" x2="1034.853" y2="77.197"/>
<line x1="77.197" y1="1034.853" x2="1246.717" y2="185.147"/>
<line x1="77.197" y1="1034.853" x2="1414.853" y2="353.283"/>
<line x1="77.197" y1="1034.853" x2="1522.803" y2="565.147"/>
<line x1="40.000" y1="800.000" x2="77.197" y2="565.147"/>
<line x1="40.000" y1="800.000" x2="185.147" y2="353.283"/>
<line x1="40.000" y1="800.000" x2="353.283" y2="185.147"/>
<line x1="40.000" y1="800.000" x2="565.147" y2="77.197"/>
<line x1="40.000" y1="800.000" x2="800.000" y2="40.000"/>
<line x1="40.000" y1="800.000" x2="1034.853" y2="77.197"/>
<line x1="40.000" y1="800.000" x2="1246.717" y2="185.147"/>
<line x1="40.000" y1="800.000" x2="1414.853" y2="353.283"/>
<line x1="40.000" y1="800.000" x2="1522.803" y2="565.147"/>
<line x1="77.197" y1="565.147" x2="185.147" y2="353.283"/>
<line x1="77.197" y1="565.147" x2="353.283" y2="185.147"/>
<line x1="77.197" y1="565.147" x2="565.147" y2="77.197"/>
<line x1="77.197" y1="565.147" x2="800.000" y2="40.000"/>
<line x1="77.197" y1="565.147" x2="1034.853" y2="77.197"/>
<line x1="77.197" y1="565.147" x2="1246.717" y2="185.147"/>
<line x1="77.197" y1="565.147" x2="1414.853" y2="353.283"/>
<line x1="77.197" y1="565.147" x2="1522.803" y2="565.147"/>
<line x1="185.147" y1="353.283" x2="353.283" y2="185.147"/>
<line x1="185.147" y1="353.283" x2="565.147" y2="77.197"/>
<line x1="185.147" y1="353.283" x2="800.000" y2="40.000"/>
<line x1="185.147" y1="353.283" x2="1034.853" y2="77.197"/>
<line x1="185.147" y1="353.283" x2="1246.717" y2="185.147"/>
<line x1="185.147" y1="353.283" x2="1414.853" y2="353.283"/>
<line x1="185.147" y1="353.283" x2="1522.803" y2="565.147"/>
<line x1="353.283" y1="185.147" x2="565.147" y2="77.197"/>
<line x1="353.283" y1="185.147" x2="800.000" y2="40.000"/>
<line x1="353.283" y1="185.147" x2="1034.853" y2="77.197"/>
<line x1="353.283" y1="185.147" x2="1246.717" y2="185.147"/>
<line x1="353.283" y1="185.147" x2="1414.853" y2="353.283"/>
<line x1="353.283" y1="185.147" x2="1522.803" y2="565.147"/>
<line x1="565.147" y1="77.197" x2="800.000" y2="40.000"/>
<line x1="565.147" y1="77.197" x2="1034.853" y2="77.197"/>
<line x1="565.147" y1="77.197" x2="1246.717" y2="185.147"/>
<line x1="565.147" y1="77.197" x2="1414.853" y2="353.283"/>
<line x1="565.147" y1="77.197" x2="1522.803" y2="565.147"/>
<line x1="800.000" y1="40.000" x2="1034.853" y2="77.197"/>
<line x1="800.000" y1="40.000" x2="1246.717" y2="185.147"/>
<line x1="800.000" y1="40.000" x2="1414.853" y2="353.283"/>
<line x1="800.000" y1="40.000" x2="1522.803" y2="565.147"/>
<line x1="1034.853" y1="77.197" x2="1246.717" y2="185.147"/>
<line x1="1034.853" y1="77.197" x2="1414.853" y2="353.283"/>
<line x1="1034.853" y1="77.197" x2="1522.803" y2="565.147"/>
<line x1="1246.717" y1="185.147" x2="1414.853" y2="353.283"/>
<line x1="1246.717" y1="185.147" x2="1522.803" y2="565.147"/>
<line x1="1414.853" y1="353.283" x2="1522.803" y2="565.147"/>
</g>
<g style="stroke:#000000;stroke-width:4.0;fill:#ff0000">
<circle cx="1560.000" cy="800.000" r="32.0"/>
<circle cx="1522.803" cy="1034.853" r="32.0"/>
<circle cx="1414.853" cy="1246.717" r="32.0"/>
<circle cx="1246.717" cy="1414.853" r="32.0"/>
<circle cx="1034.853" cy="1522.803" r="32.0"/>
<circle cx="800.000" cy="1560.000" r="32.0"/>
<circle cx="565.147" cy="1522.803" r="32.0"/>
<circle cx="353.283" cy="1414.853" r="32.0"/>
<circle cx="185.147" cy="1246.717" r="32.0"/>
<circle cx="77.197" cy="1034.853" r="32.0"/>
<circle cx="40.000" cy="800.000" r="32.0"/>
<circle cx="77.197" cy="565.147" r="32.0"/>
<circle cx="185.147" cy="353.283" r="32.0"/>
<circle cx="353.283" cy="185.147" r="32.0"/>
<circle cx="565.147" cy="77.197" r="32.0"/>
<circle cx="800.000" cy="40.000" r="32.0"/>
<circle cx="1034.853" cy="77.197" r="32.0"/>
<circle cx="1246.717" cy="185.147" r="32.0"/>
<circle cx="1414.853" cy="353.283" r="32.0"/>
<circle cx="1522.803" cy="565.147" r="32.0"/>
</g>
</svg>
